<svg width="37" height="41" viewBox="0 0 37 41" fill="none" xmlns="http://www.w3.org/2000/svg">
<path d="M22.6763 26.125H31.1138V23.3125H22.6763V26.125Z" fill="#0B1719"/>
<path d="M28.3013 37.375H36.7388V34.5625H28.3013V37.375Z" fill="#0B1719"/>
<path d="M25.4888 31.75H33.9263V28.9375H25.4888V31.75Z" fill="#0B1719"/>
<path d="M18.4616 26.125C18.4516 24.9384 18.135 23.7745 17.5426 22.7464C16.9501 21.7182 16.102 20.8606 15.0804 20.2569L25.4888 2.21875L23.0547 0.8125L12.4012 19.2709C11.0935 18.9787 9.73337 19.019 8.44526 19.3882C7.15715 19.7574 5.98218 20.4438 5.02784 21.3844C-0.236601 26.4625 0.171071 38.3342 0.190337 38.8375C0.204873 39.2006 0.359424 39.544 0.621588 39.7957C0.883752 40.0474 1.23317 40.1878 1.59659 40.1875H22.678C22.9731 40.1875 23.2608 40.0946 23.5002 39.9221C23.7396 39.7495 23.9187 39.5059 24.012 39.2259C24.1054 38.9459 24.1082 38.6437 24.0202 38.3619C23.9322 38.0802 23.7578 37.8333 23.5217 37.6562C18.544 33.9211 18.4616 26.2005 18.4616 26.125ZM11.3278 21.9022C12.4534 21.9145 13.5308 22.3603 14.336 23.1468C15.1412 23.9334 15.6121 25.0001 15.6508 26.125C15.6508 26.1786 15.6535 26.4175 15.6744 26.7843L7.37838 23.0948C7.92481 22.6442 8.55536 22.3067 9.23337 22.102C9.91139 21.8972 10.6233 21.8293 11.3278 21.9022ZM16.277 37.375C15.1533 36.2304 14.4371 34.748 14.2388 33.1562H11.4263C11.5271 34.653 11.9948 36.1018 12.7881 37.375H9.66157C9.0832 35.55 8.73129 33.6608 8.61377 31.75H5.80127C5.89206 33.6551 6.20601 35.543 6.73671 37.375H2.98877C3.03237 34.7926 3.39659 29.0892 5.52382 25.3478L16.1171 30.0587C16.6266 32.7015 17.7122 35.1995 19.2968 37.375H16.277Z" fill="#0B1719"/>
</svg>
