<svg width="56" height="58" viewBox="0 0 56 58" fill="none" xmlns="http://www.w3.org/2000/svg">
<path fill-rule="evenodd" clip-rule="evenodd" d="M6.19754 41.9907C2.66553 38.4052 2.33745 33.3266 4.86522 30.7606L25.667 9.64414C30.7227 4.51192 37.5291 4.32713 43.986 10.8817L45.7539 12.6764C52.8307 19.8602 52.0136 25.8063 46.8009 31.0978L31.8161 46.3094L29.2958 43.751L44.2807 28.5395C47.6681 25.1009 49.0091 20.3227 43.6154 14.8473L41.8053 13.0098C37.0258 8.15807 31.9025 8.67765 28.3087 12.3258L7.50697 33.4423C5.92871 35.0444 5.96595 37.4094 8.3356 39.8149L11.8703 43.403C14.121 45.6879 16.5568 46.0417 18.2377 44.3354L35.2799 27.0354C36.4155 25.8827 36.5975 25.2635 33.9601 22.3735C31.0513 19.6465 30.8891 20.4333 29.8326 21.5057L20.7352 30.7408L18.0908 28.0564L27.1882 18.8213C29.5856 16.3877 32.4954 16.845 36.0834 20.2181C39.4052 23.8507 40.1958 27.076 37.7579 29.5509L20.7157 46.8508C18.1024 49.5037 13.1189 49.0168 9.72692 45.5734L6.19754 41.9907Z" fill="#494C4E"/>
</svg>
