<svg width="45" height="45" viewBox="0 0 45 45" fill="none" xmlns="http://www.w3.org/2000/svg">
<path d="M21.506 30.2341L16.8752 34.8649L12.2444 30.2341L16.8752 25.6034L21.506 30.2341ZM21.506 18.9841L16.8752 14.3533L12.2444 18.9841L16.8752 23.6149L21.506 18.9841ZM17.8694 35.8591L22.5002 40.4899L27.131 35.8591L22.5002 31.2284L17.8694 35.8591ZM22.5002 29.2399L27.131 24.6091L22.5002 19.9783L17.8694 24.6091L22.5002 29.2399ZM27.131 13.3591L22.5002 8.72835L17.8694 13.3591L22.5002 17.9899L27.131 13.3591ZM40.7815 5.62476C40.7815 7.17866 39.5229 8.43726 37.969 8.43726H37.8565L35.4672 38.3046C35.2915 40.4969 33.4605 42.1873 31.2611 42.1873H13.7393C11.5399 42.1873 9.70896 40.4969 9.53459 38.3046L7.14396 8.43726H7.03146C5.47756 8.43726 4.21896 7.17866 4.21896 5.62476C4.21896 4.07085 5.47756 2.81226 7.03146 2.81226H37.969C39.5229 2.81226 40.7815 4.07085 40.7815 5.62476ZM34.7444 18.9841L35.494 18.2346C35.6121 18.1165 35.6838 17.9604 35.6979 17.793C35.7499 17.1419 34.9624 16.7777 34.4997 17.2404L33.7502 17.9899L29.1194 13.3591L32.8418 9.63679C33.2847 9.19522 32.9697 8.43726 32.344 8.43726C32.1569 8.43726 31.9783 8.51179 31.8461 8.64257L28.1252 12.3649L24.4029 8.64257C24.2721 8.51179 24.0935 8.43726 23.9065 8.43726H21.094C20.9069 8.43726 20.7283 8.51179 20.5961 8.64257L16.8752 12.3649L13.1529 8.64257C13.0221 8.51179 12.8435 8.43726 12.6565 8.43726C12.0307 8.43726 11.7157 9.19522 12.1587 9.63679L15.881 13.3591L11.2502 17.9899L10.5021 17.2418C10.0394 16.7791 9.25193 17.1433 9.30396 17.7944C9.31803 17.9604 9.38974 18.1179 9.50787 18.236L10.256 18.9841L9.69209 19.548C9.54584 19.6943 9.47131 19.8954 9.48818 20.1007C9.53599 20.6983 10.2616 20.9655 10.6863 20.5423L11.2502 19.9783L15.881 24.6091L11.2502 29.2399L11.1419 29.1316C10.7946 28.7857 10.204 29.0585 10.2433 29.5465L10.3516 30.8979C10.3882 31.3465 10.9324 31.5462 11.2502 31.2284L15.881 35.8591L12.4301 39.3101C12.101 39.6391 12.1769 40.1904 12.5819 40.4196C12.8561 40.5743 13.2007 40.5279 13.4243 40.3043L16.8752 36.8534L20.5976 40.5743C20.7283 40.7065 20.9069 40.781 21.094 40.781H23.9065C24.0935 40.781 24.2721 40.7065 24.4043 40.5757L28.1252 36.8534L31.5761 40.3043C31.7997 40.5279 32.1443 40.5743 32.4185 40.4196C32.8235 40.1904 32.8994 39.6391 32.5704 39.3101L29.1194 35.8591L33.7502 31.2284C34.068 31.5462 34.6122 31.3465 34.6488 30.8979L34.7571 29.5451C34.7965 29.0571 34.2058 28.7843 33.8585 29.1302L33.7502 29.2399L29.1194 24.6091L33.7502 19.9783L34.3141 20.5423C34.7388 20.9669 35.4644 20.6983 35.5122 20.1007C35.5291 19.8954 35.4546 19.6929 35.3083 19.548L34.7444 18.9841ZM23.4944 18.9841L28.1252 23.6149L32.756 18.9841L28.1252 14.3533L23.4944 18.9841ZM23.4944 30.2341L28.1252 34.8649L32.756 30.2341L28.1252 25.6034L23.4944 30.2341Z" fill="#0B1719"/>
</svg>
