<svg width="45" height="45" viewBox="0 0 45 45" fill="none" xmlns="http://www.w3.org/2000/svg">
<path d="M23.7023 2.45408C23.6362 2.39361 23.5406 2.30924 23.4323 2.21221C22.9008 1.74111 22.1006 1.74111 21.569 2.21221C21.4608 2.30783 21.3651 2.39361 21.299 2.45268C17.6934 5.72361 7.03122 16.2803 7.03122 26.7133C7.03122 32.4058 14.0779 36.1647 18.2784 37.8972C18.9225 38.163 20.7942 39.205 21.7968 39.7731V42.8852C21.7968 43.2733 22.1118 43.5883 22.5 43.5883C22.8881 43.5883 23.2031 43.2733 23.2031 42.8852V39.7731C24.2058 39.205 26.0761 38.163 26.7215 37.8986C30.922 36.1647 37.9687 32.4072 37.9687 26.7133C37.9687 16.2817 27.3079 5.72502 23.7023 2.45408ZM35.7581 23.7981L23.2031 31.33V37.4556C23.2031 37.8438 22.8881 38.1588 22.5 38.1588C22.1118 38.1588 21.7968 37.8438 21.7968 37.4556V31.33L9.24184 23.7967C8.97747 23.6378 8.84669 23.3256 8.92122 23.0261C9.03372 22.5663 9.55966 22.3483 9.96606 22.5916L21.7968 29.6903V21.4863L12.645 15.9963C12.3061 15.7938 12.202 15.3508 12.4129 15.0175C12.6168 14.6955 13.0415 14.5942 13.3692 14.7911L21.7968 19.848V13.0488L16.979 10.1575C16.6064 9.93393 16.5234 9.42908 16.8061 9.09721C17.0297 8.83564 17.4079 8.77518 17.7018 8.95096L21.7968 11.4091V4.60705C21.7968 4.21893 22.1118 3.90393 22.5 3.90393C22.8881 3.90393 23.2031 4.21893 23.2031 4.60705V11.4091L27.2981 8.95236C27.592 8.77518 27.9717 8.83705 28.1939 9.09861C28.4765 9.42908 28.3936 9.93393 28.0209 10.1589L23.2031 13.0488V19.8466L31.6308 14.7897C31.9584 14.5928 32.3831 14.6941 32.587 15.0161C32.7979 15.3494 32.6925 15.7924 32.355 15.9949L23.2031 21.4863V29.6903L35.0339 22.5916C35.4403 22.3483 35.9648 22.5663 36.0787 23.0261C36.1533 23.3256 36.0225 23.6392 35.7581 23.7981Z" fill="#0B1719"/>
</svg>
