<svg width="38" height="52" viewBox="0 0 38 52" fill="none" xmlns="http://www.w3.org/2000/svg">
<path fill-rule="evenodd" clip-rule="evenodd" d="M18.6831 4.8693C22.6258 4.96928 26.3687 6.6515 29.092 9.54743C31.8152 12.4434 33.2967 16.3169 33.212 20.3196V20.4249C33.212 23.2693 32.4441 26.061 30.9932 28.4945L29.476 30.6436L18.6831 45.8937L7.89026 30.6542L6.37303 28.4966C4.92135 26.0652 4.15396 23.2764 4.15426 20.4333V20.3196C4.06955 16.3169 5.55108 12.4434 8.27432 9.54743C10.9976 6.6515 14.7405 4.96928 18.6831 4.8693ZM18.6831 0.655396C13.6378 0.750094 8.83592 2.87464 5.3331 6.56202C1.83027 10.2494 -0.0868471 15.1978 0.00315361 20.3196V20.4312C0.0037636 24.1029 1.00981 27.7021 2.90893 30.8269L4.51333 33.1024L16.5515 50.0992C16.7928 50.4461 17.1127 50.7292 17.4841 50.9246C17.8556 51.1199 18.2679 51.2219 18.6862 51.2219C19.1046 51.2219 19.5169 51.1199 19.8883 50.9246C20.2598 50.7292 20.5797 50.4461 20.821 50.0992L32.8592 33.1024L34.4573 30.8269C36.3561 27.7027 37.3621 24.1043 37.3631 20.4333V20.3196C37.4531 15.1978 35.536 10.2494 32.0332 6.56202C28.5303 2.87464 23.7285 0.750094 18.6831 0.655396V0.655396Z" fill="#494C4E"/>
<path fill-rule="evenodd" clip-rule="evenodd" d="M18.6832 30.1528C15.9308 30.1528 13.2912 29.0429 11.345 27.0672C9.39879 25.0916 8.30542 22.412 8.30542 19.618C8.30542 16.824 9.39879 14.1444 11.345 12.1687C13.2912 10.193 15.9308 9.08313 18.6832 9.08313C21.4356 9.08313 24.0752 10.193 26.0214 12.1687C27.9676 14.1444 29.061 16.824 29.061 19.618C29.061 22.412 27.9676 25.0916 26.0214 27.0672C24.0752 29.0429 21.4356 30.1528 18.6832 30.1528ZM18.6832 13.2971C17.0318 13.2971 15.448 13.963 14.2803 15.1484C13.1126 16.3338 12.4565 17.9416 12.4565 19.618C12.4565 21.2944 13.1126 22.9021 14.2803 24.0875C15.448 25.2729 17.0318 25.9389 18.6832 25.9389C20.3346 25.9389 21.9184 25.2729 23.0861 24.0875C24.2538 22.9021 24.9099 21.2944 24.9099 19.618C24.9099 17.9416 24.2538 16.3338 23.0861 15.1484C21.9184 13.963 20.3346 13.2971 18.6832 13.2971Z" fill="#494C4E"/>
</svg>
