<svg width="37" height="45" viewBox="0 0 37 45" fill="none" xmlns="http://www.w3.org/2000/svg">
<path fill-rule="evenodd" clip-rule="evenodd" d="M8.19502 1.13896C8.48072 1.27978 8.71879 1.48591 8.8845 1.73598C9.05022 1.98604 9.13755 2.27093 9.13744 2.56107V16.1102H12.1942C12.6798 16.1102 13.1456 16.2815 13.489 16.5864C13.8324 16.8913 14.0253 17.3048 14.0253 17.736C14.0253 18.1673 13.8324 18.5808 13.489 18.8857C13.1456 19.1906 12.6798 19.3619 12.1942 19.3619H2.4233C1.93766 19.3619 1.4719 19.1906 1.1285 18.8857C0.785094 18.5808 0.592173 18.1673 0.592173 17.736C0.592173 17.3048 0.785094 16.8913 1.1285 16.5864C1.4719 16.2815 1.93766 16.1102 2.4233 16.1102H5.47518V5.49418L3.39258 6.64965C2.98075 6.87819 2.48354 6.95211 2.01033 6.85515C1.53712 6.75818 1.12668 6.49828 0.869284 6.13261C0.611892 5.76694 0.52864 5.32546 0.637842 4.90529C0.747044 4.48512 1.03976 4.12068 1.45158 3.89213L6.33459 1.18232C6.61203 1.02811 6.93094 0.942755 7.25814 0.93513C7.58534 0.927505 7.90886 0.99789 8.19502 1.13896ZM20.1315 13.409C20.1315 12.9778 20.3245 12.5642 20.6679 12.2593C21.0113 11.9544 21.477 11.7831 21.9627 11.7831H34.7366C35.0985 11.7834 35.4523 11.8789 35.7531 12.0576C36.0539 12.2363 36.2884 12.4901 36.4268 12.787C36.5653 13.0839 36.6016 13.4106 36.531 13.7258C36.4605 14.041 36.2864 14.3306 36.0306 14.558L29.253 20.5781C30.5958 20.7884 31.8337 21.1266 32.8957 21.6252C35.1053 22.6592 36.5677 24.4087 36.5677 26.8671C36.5677 28.9612 35.4178 30.6608 33.7063 31.7881C32.029 32.8959 29.8316 33.4573 27.5513 33.4573C24.2137 33.4573 21.9993 32.3127 21.0398 31.8184C20.6199 31.6014 20.3142 31.2451 20.1902 30.828C20.0661 30.4109 20.1337 29.9671 20.3781 29.5942C20.6226 29.2214 21.0238 28.95 21.4936 28.8398C21.9634 28.7296 22.4632 28.7897 22.8831 29.0067C23.6912 29.4251 25.2099 30.2055 27.5513 30.2055C29.1944 30.2055 30.5861 29.798 31.5236 29.1802C32.427 28.584 32.9055 27.8036 32.9055 26.8671C32.9055 25.7831 32.3708 25.0547 31.1891 24.5019C29.8756 23.8863 27.832 23.5416 25.1562 23.5416C24.7942 23.5413 24.4405 23.4458 24.1397 23.2671C23.8388 23.0884 23.6044 22.8346 23.4659 22.5377C23.3275 22.2408 23.2912 21.9141 23.3617 21.5989C23.4323 21.2837 23.6064 20.9941 23.8622 20.7667L30.3151 15.0349H21.9627C21.477 15.0349 21.0113 14.8636 20.6679 14.5587C20.3245 14.2538 20.1315 13.8402 20.1315 13.409ZM7.62371 29.5834C6.89575 29.5076 6.15962 29.6415 5.52395 29.9655C4.88827 30.2895 4.38672 30.7863 4.09329 31.3827C3.88929 31.7675 3.52362 32.066 3.07468 32.2142C2.62575 32.3624 2.12929 32.3485 1.69174 32.1755C1.25419 32.0025 0.910392 31.6842 0.734054 31.2888C0.557716 30.8934 0.562877 30.4524 0.748429 30.0603C1.35875 28.8323 2.39568 27.81 3.70748 27.143C5.01928 26.4759 6.53708 26.1992 8.03876 26.3533C9.47735 26.4844 10.8205 27.0535 11.8402 27.964C12.8998 28.9309 13.5126 30.2576 13.5126 31.8184C13.5126 35.3759 10.451 37.1015 8.33663 38.2916C7.0231 39.0309 5.45565 39.7961 4.68658 41.0513H12.1893C12.675 41.0513 13.1407 41.2226 13.4841 41.5275C13.8275 41.8324 14.0205 42.246 14.0205 42.6772C14.0205 43.1084 13.8275 43.522 13.4841 43.8269C13.1407 44.1318 12.675 44.3031 12.1893 44.3031H2.4233C1.93766 44.3031 1.4719 44.1318 1.1285 43.8269C0.785094 43.522 0.592173 43.1084 0.592173 42.6772C0.592173 38.7772 3.85647 36.9758 6.06847 35.7184C8.5881 34.2898 9.8528 33.4833 9.8528 31.8163C9.8528 31.0467 9.56959 30.5502 9.21801 30.2294C8.78706 29.8576 8.22475 29.6294 7.62615 29.5834H7.62371Z" fill="#494C4E"/>
</svg>
