<svg width="45" height="45" viewBox="0 0 45 45" fill="none" xmlns="http://www.w3.org/2000/svg">
<g clip-path="url(#clip0_699_4)">
<path d="M44.007 8.74912L43.949 8.74235C35.017 7.69952 30.4901 10.2064 28.175 12.7042L28.1749 12.7044C25.9844 15.0657 25.0361 18.5167 24.5195 21.8975C24.3028 23.3154 24.1646 24.7004 24.0377 25.9721C24.0139 26.2105 23.9905 26.4449 23.9671 26.6747C23.8205 28.1119 23.6701 29.4028 23.3972 30.3312L23.3586 30.4625L23.2585 30.5558C21.5544 32.1451 20.3658 34.1809 19.4525 36.3421L19.0443 37.3081L18.5507 36.3827C18.0543 35.452 17.4593 34.6069 16.7256 33.9077L16.5913 33.7797L16.573 33.5952C16.1329 29.1674 15.6111 26.5774 15.0566 24.9264C14.5123 23.3053 13.9364 22.5863 13.3406 21.8983C11.7439 20.1347 8.3349 18.4008 2.46582 19.0939L2.4366 19.0974H2.40718C1.98712 19.0974 1.56585 19.4039 1.32549 19.8659C1.12084 20.3609 1.18407 20.8428 1.46958 21.2725C2.55158 22.6495 3.42162 24.2145 4.10208 25.7603C4.13584 25.8308 4.18591 25.955 4.24092 26.0914L4.25238 26.1199L4.25412 26.1242C4.32288 26.2947 4.41184 26.5153 4.52048 26.7738C4.73967 27.2953 5.03774 27.9682 5.40376 28.6772C6.14845 30.1197 7.12945 31.6203 8.23693 32.3572L8.25737 32.3708L8.27637 32.3864C9.27837 33.2054 10.4223 33.7659 11.5177 34.0142L44.007 8.74912ZM44.007 8.74912L44.065 8.74234M44.007 8.74912L44.065 8.74234M44.065 8.74234C44.1069 8.73744 44.2458 8.75166 44.4419 8.85284C44.6261 8.94782 44.8132 9.09612 44.954 9.2865C45.0923 9.47353 45.1839 9.69759 45.1931 9.95827C45.2022 10.2152 45.1324 10.5419 44.8951 10.939C43.3567 13.0635 42.0023 15.3833 40.9334 17.8073C40.8857 17.906 40.8117 18.0932 40.7251 18.312L40.7199 18.3253L40.7023 18.3697C40.6062 18.6126 40.4844 18.9209 40.3373 19.2791C40.0248 20.0397 39.6002 21.0215 39.0777 22.0563C38.0202 24.1506 36.6068 26.3686 34.9762 27.4675C33.4353 28.5007 31.7169 29.2372 30.0914 29.9077C29.4186 30.1521 28.5421 30.4817 27.6855 30.8918C26.8351 31.2989 25.9692 31.8015 25.3382 32.4042C22.2045 35.1385 20.0385 40.5602 19.1372 51.3207L19.1369 51.324C19.0827 52.0289 18.4968 52.5696 17.7765 52.4925L17.7765 52.4924L17.7669 52.4915C17.045 52.4282 16.5238 51.7652 16.5937 50.9331L17.6502 41.3597L17.661 41.2627M44.065 8.74234L17.661 41.2627M17.661 41.2627L17.6343 41.1687M17.661 41.2627L17.6343 41.1687M17.6343 41.1687C17.0732 39.1867 15.7812 34.9783 11.5179 34.0142L17.6343 41.1687ZM5.95475 21.7289L5.16412 21.7451L5.51778 22.4524C5.7088 22.8344 6.06547 23.5729 6.40055 24.2684C6.45747 24.3865 6.51381 24.5035 6.56861 24.6173C6.81933 25.1379 7.03763 25.5912 7.13003 25.7778C8.95793 31.0673 12.6729 31.6371 13.0622 31.6371H13.634L13.5578 31.0704C13.5354 30.9046 13.513 30.7366 13.4905 30.5678C13.3213 29.2992 13.1462 27.9872 12.9678 27.282L12.9646 27.2694L12.9608 27.2571C12.9369 27.1797 12.9106 27.0869 12.8808 26.9812C12.6873 26.2974 12.3413 25.0739 11.4921 23.9969C10.4821 22.7159 8.79667 21.6707 5.95475 21.7289ZM37.7396 18.4324L37.7397 18.4324L37.743 18.4257C37.8061 18.2995 37.9515 18.0009 38.1492 17.5945C38.8782 16.0968 40.32 13.1343 40.9871 11.9365L41.37 11.2489L40.5849 11.1944C35.1514 10.8171 31.672 12.8605 30.3199 14.3128L30.3137 14.3194L30.3077 14.3263C28.9632 15.88 27.1752 19.8512 26.5469 27.5478L26.4857 28.2983L27.2011 28.0635C31.3057 26.7169 33.3183 25.6124 34.6212 24.1324C35.2698 23.3957 35.7245 22.5863 36.1767 21.6638C36.3427 21.3253 36.5061 20.9768 36.6781 20.6099C36.9836 19.958 37.3164 19.2479 37.7396 18.4324Z" fill="#0B1719" stroke="black"/>
</g>
<defs>
<clipPath id="clip0_699_4">
<rect width="45" height="45" fill="white"/>
</clipPath>
</defs>
</svg>
