<svg width="45" height="49" viewBox="0 0 45 49" fill="none" xmlns="http://www.w3.org/2000/svg">
<g filter="url(#filter0_d_699_2)">
<path d="M22.5 39.375L26.25 35.625M30.9375 35.625C33.5263 35.625 35.625 33.5263 35.625 30.9375C35.625 28.3487 33.5263 26.25 30.9375 26.25C28.3487 26.25 26.25 28.3487 26.25 30.9375C26.25 33.5263 28.3487 35.625 30.9375 35.625ZM18.75 9.375L22.5 5.625L18.75 9.375ZM14.0625 18.75C16.6513 18.75 18.75 16.6513 18.75 14.0625C18.75 11.4737 16.6513 9.375 14.0625 9.375C11.4737 9.375 9.375 11.4737 9.375 14.0625C9.375 16.6513 11.4737 18.75 14.0625 18.75ZM15 30L30 15L15 30ZM10.3125 39.375C12.9013 39.375 15 37.2763 15 34.6875C15 32.0987 12.9013 30 10.3125 30C7.72367 30 5.625 32.0987 5.625 34.6875C5.625 37.2763 7.72367 39.375 10.3125 39.375ZM34.6875 15C37.2763 15 39.375 12.9013 39.375 10.3125C39.375 7.72367 37.2763 5.625 34.6875 5.625C32.0987 5.625 30 7.72367 30 10.3125C30 12.9013 32.0987 15 34.6875 15Z" stroke="#0B1719" stroke-width="3" stroke-linecap="round" stroke-linejoin="round"/>
</g>
<defs>
<filter id="filter0_d_699_2" x="-4" y="0" width="53" height="53" filterUnits="userSpaceOnUse" color-interpolation-filters="sRGB">
<feFlood flood-opacity="0" result="BackgroundImageFix"/>
<feColorMatrix in="SourceAlpha" type="matrix" values="0 0 0 0 0 0 0 0 0 0 0 0 0 0 0 0 0 0 127 0" result="hardAlpha"/>
<feOffset dy="4"/>
<feGaussianBlur stdDeviation="2"/>
<feComposite in2="hardAlpha" operator="out"/>
<feColorMatrix type="matrix" values="0 0 0 0 0 0 0 0 0 0 0 0 0 0 0 0 0 0 0.25 0"/>
<feBlend mode="normal" in2="BackgroundImageFix" result="effect1_dropShadow_699_2"/>
<feBlend mode="normal" in="SourceGraphic" in2="effect1_dropShadow_699_2" result="shape"/>
</filter>
</defs>
</svg>
