<svg width="40" height="40" viewBox="0 0 40 40" fill="none" xmlns="http://www.w3.org/2000/svg">
<path d="M26.9594 0C26.9594 0 30.4931 8.645 15.3482 14.4518C7.11882 17.6062 0.798162 25.6912 8.34502 38.1805C8.97002 32.5979 11.65 20.2893 23.1737 17.4805C23.1737 17.4805 12.4481 21.4911 11.5007 39.6454C17.0119 40.4192 29.9374 40.9391 33.775 29.7223C38.8425 14.9024 26.9594 0 26.9594 0Z" fill="#42A380"/>
<path d="M11.5057 39.5699C23.2056 34.9005 31.7187 23.9618 32.8937 10.9037C30.5018 4.45183 26.9594 0 26.9594 0C26.9594 0 30.4931 8.645 15.3482 14.4518C7.11882 17.6062 0.798162 25.6912 8.34502 38.1805C8.97002 32.5979 11.65 20.2893 23.1737 17.4805C23.1731 17.4806 12.4794 21.4812 11.5057 39.5699Z" fill="#6EB29A"/>
<path d="M7.17752 14.74C7.78159 14.74 8.27129 14.2503 8.27129 13.6463C8.27129 13.0422 7.78159 12.5525 7.17752 12.5525C6.57344 12.5525 6.08374 13.0422 6.08374 13.6463C6.08374 14.2503 6.57344 14.74 7.17752 14.74Z" fill="#42A380"/>
<path d="M10.615 13.3337C11.0464 13.3337 11.3962 12.9839 11.3962 12.5525C11.3962 12.121 11.0464 11.7712 10.615 11.7712C10.1835 11.7712 9.83374 12.121 9.83374 12.5525C9.83374 12.9839 10.1835 13.3337 10.615 13.3337Z" fill="#6EB29A"/>
<path d="M9.91189 7.08367C10.9905 7.08367 11.865 6.20924 11.865 5.13058C11.865 4.05192 10.9905 3.17749 9.91189 3.17749C8.83323 3.17749 7.9588 4.05192 7.9588 5.13058C7.9588 6.20924 8.83323 7.08367 9.91189 7.08367Z" fill="#6EB29A"/>
<path d="M15.9274 10.2088C16.2726 10.2088 16.5524 9.92893 16.5524 9.58375C16.5524 9.23857 16.2726 8.95874 15.9274 8.95874C15.5823 8.95874 15.3024 9.23857 15.3024 9.58375C15.3024 9.92893 15.5823 10.2088 15.9274 10.2088Z" fill="#6EB29A"/>
<path d="M21.1625 7.86495C22.1548 7.86495 22.9593 7.06047 22.9593 6.0681C22.9593 5.07572 22.1548 4.27124 21.1625 4.27124C20.1701 4.27124 19.3656 5.07572 19.3656 6.0681C19.3656 7.06047 20.1701 7.86495 21.1625 7.86495Z" fill="#6EB29A"/>
</svg>
