<svg width="26" height="28" viewBox="0 0 26 28" fill="none" xmlns="http://www.w3.org/2000/svg">
<path d="M13 10.96C16.0265 10.96 18.48 8.50652 18.48 5.48C18.48 2.45348 16.0265 0 13 0C9.97344 0 7.51996 2.45348 7.51996 5.48C7.51996 8.50652 9.97344 10.96 13 10.96Z" fill="#B2D8C9"/>
<path d="M20.54 27.9999H5.45997C4.18693 27.9999 2.96604 27.4942 2.06586 26.594C1.16569 25.6939 0.659973 24.473 0.659973 23.1999C0.662621 20.4743 1.74654 17.8611 3.67384 15.9338C5.60114 14.0065 8.21436 12.9226 10.94 12.9199H15.06C17.7856 12.9226 20.3988 14.0065 22.3261 15.9338C24.2534 17.8611 25.3373 20.4743 25.34 23.1999C25.34 24.473 24.8343 25.6939 23.9341 26.594C23.0339 27.4942 21.813 27.9999 20.54 27.9999Z" fill="#6EB29A"/>
</svg>
