<svg width="51" height="57" viewBox="0 0 51 57" fill="none" xmlns="http://www.w3.org/2000/svg">
<path fill-rule="evenodd" clip-rule="evenodd" d="M10.7745 0.265846C11.1793 0.449004 11.5166 0.717121 11.7514 1.04238C11.9862 1.36763 12.11 1.73818 12.1098 2.11556V19.7386H16.4411C17.1292 19.7386 17.7891 19.9614 18.2757 20.358C18.7623 20.7546 19.0357 21.2925 19.0357 21.8534C19.0357 22.4143 18.7623 22.9522 18.2757 23.3488C17.7891 23.7454 17.1292 23.9682 16.4411 23.9682H2.59633C1.90821 23.9682 1.24826 23.7454 0.761681 23.3488C0.275101 22.9522 0.00174322 22.4143 0.00174322 21.8534C0.00174322 21.2925 0.275101 20.7546 0.761681 20.358C1.24826 19.9614 1.90821 19.7386 2.59633 19.7386H6.92065V5.93061L3.96974 7.4335C3.3862 7.73076 2.68169 7.82691 2.01118 7.70079C1.34068 7.57468 0.7591 7.23662 0.394392 6.761C0.0296837 6.28539 -0.0882789 5.71116 0.0664536 5.16465C0.221186 4.61814 0.635939 4.14412 1.21947 3.84685L8.13838 0.32224C8.53149 0.121669 8.98337 0.0106463 9.44699 0.000728212C9.91061 -0.00918989 10.369 0.0823594 10.7745 0.265846ZM27.6878 16.2253C27.6878 15.6644 27.9611 15.1265 28.4477 14.7299C28.9343 14.3333 29.5942 14.1105 30.2823 14.1105H48.3822C48.895 14.1109 49.3962 14.2351 49.8225 14.4675C50.2488 14.6999 50.581 15.0301 50.7771 15.4163C50.9733 15.8025 51.0247 16.2274 50.9248 16.6374C50.8249 17.0473 50.5781 17.424 50.2157 17.7197L40.6123 25.55C42.515 25.8235 44.2689 26.2634 45.7738 26.9119C48.9046 28.2569 50.9768 30.5324 50.9768 33.7299C50.9768 36.4538 49.3474 38.6644 46.9223 40.1306C44.5457 41.5715 41.4322 42.3018 38.201 42.3018C33.472 42.3018 30.3342 40.813 28.9747 40.1701C28.3797 39.8878 27.9466 39.4244 27.7708 38.8819C27.595 38.3393 27.6908 37.7621 28.0372 37.2771C28.3835 36.7921 28.9521 36.4392 29.6177 36.2959C30.2833 36.1526 30.9916 36.2307 31.5866 36.513C32.7316 37.0572 34.8834 38.0723 38.201 38.0723C40.5293 38.0723 42.5011 37.5422 43.8296 36.7386C45.1096 35.9631 45.7876 34.948 45.7876 33.7299C45.7876 32.3201 45.03 31.3727 43.3556 30.6537C41.4944 29.8529 38.5989 29.4045 34.8073 29.4045C34.2945 29.4042 33.7933 29.2799 33.367 29.0475C32.9408 28.8151 32.6086 28.485 32.4124 28.0988C32.2162 27.7126 32.1648 27.2877 32.2647 26.8777C32.3647 26.4677 32.6114 26.0911 32.9738 25.7953L42.1171 18.3401H30.2823C29.5942 18.3401 28.9343 18.1173 28.4477 17.7207C27.9611 17.3241 27.6878 16.7862 27.6878 16.2253ZM9.96497 37.263C8.9335 37.1644 7.89046 37.3387 6.98975 37.7601C6.08904 38.1814 5.37837 38.8277 4.9626 39.6034C4.67354 40.1038 4.15541 40.4921 3.5193 40.6848C2.88319 40.8776 2.17973 40.8595 1.55976 40.6345C0.939779 40.4095 0.452639 39.9955 0.20278 39.4812C-0.0470801 38.9669 -0.0397675 38.3933 0.223149 37.8833C1.08793 36.2861 2.55719 34.9564 4.41593 34.0888C6.27466 33.2212 8.42529 32.8613 10.5531 33.0617C12.5915 33.2322 14.4946 33.9724 15.9395 35.1567C17.4409 36.4143 18.3092 38.1399 18.3092 40.1701C18.3092 44.7972 13.971 47.0417 10.9751 48.5897C9.11395 49.5512 6.89298 50.5466 5.80325 52.1792H16.4342C17.1223 52.1792 17.7822 52.402 18.2688 52.7986C18.7554 53.1952 19.0287 53.7331 19.0287 54.2939C19.0287 54.8548 18.7554 55.3927 18.2688 55.7893C17.7822 56.1859 17.1223 56.4087 16.4342 56.4087H2.59633C1.90821 56.4087 1.24826 56.1859 0.761681 55.7893C0.275101 55.3927 0.00174322 54.8548 0.00174322 54.2939C0.00174322 49.2213 4.62703 46.8782 7.7613 45.2427C11.3315 43.3846 13.1235 42.3356 13.1235 40.1673C13.1235 39.1663 12.7222 38.5206 12.224 38.1033C11.6134 37.6197 10.8166 37.3229 9.96843 37.263H9.96497Z" fill="black"/>
</svg>
