<svg width="67" height="67" viewBox="0 0 67 67" fill="none" xmlns="http://www.w3.org/2000/svg">
<path d="M22.333 5.58337H44.6663C49.1087 5.58337 53.3691 7.3481 56.5104 10.4893C59.6516 13.6306 61.4163 17.891 61.4163 22.3334V44.6667C61.4163 49.1091 59.6516 53.3695 56.5104 56.5107C53.3691 59.652 49.1087 61.4167 44.6663 61.4167H22.333C17.8906 61.4167 13.6302 59.652 10.489 56.5107C7.34773 53.3695 5.58301 49.1091 5.58301 44.6667L5.58301 22.3334C5.58301 17.891 7.34773 13.6306 10.489 10.4893C13.6302 7.3481 17.8906 5.58337 22.333 5.58337V5.58337ZM22.333 11.1667C19.3714 11.1667 16.5311 12.3432 14.437 14.4373C12.3428 16.5315 11.1663 19.3718 11.1663 22.3334V44.6667C11.1663 47.6283 12.3428 50.4686 14.437 52.5627C16.5311 54.6569 19.3714 55.8334 22.333 55.8334H44.6663C47.6279 55.8334 50.4682 54.6569 52.5624 52.5627C54.6565 50.4686 55.833 47.6283 55.833 44.6667V22.3334C55.833 19.3718 54.6565 16.5315 52.5624 14.4373C50.4682 12.3432 47.6279 11.1667 44.6663 11.1667H22.333ZM39.083 30.7084H47.458C48.1984 30.7084 48.9085 31.0025 49.432 31.526C49.9556 32.0496 50.2497 32.7596 50.2497 33.5C50.2497 34.2404 49.9556 34.9505 49.432 35.474C48.9085 35.9976 48.1984 36.2917 47.458 36.2917H39.083C38.3426 36.2917 37.6325 35.9976 37.109 35.474C36.5855 34.9505 36.2913 34.2404 36.2913 33.5C36.2913 32.7596 36.5855 32.0496 37.109 31.526C37.6325 31.0025 38.3426 30.7084 39.083 30.7084ZM33.4997 41.875H47.458C48.1984 41.875 48.9085 42.1692 49.432 42.6927C49.9556 43.2162 50.2497 43.9263 50.2497 44.6667C50.2497 45.4071 49.9556 46.1172 49.432 46.6407C48.9085 47.1643 48.1984 47.4584 47.458 47.4584H33.4997C32.7593 47.4584 32.0492 47.1643 31.5257 46.6407C31.0021 46.1172 30.708 45.4071 30.708 44.6667C30.708 43.9263 31.0021 43.2162 31.5257 42.6927C32.0492 42.1692 32.7593 41.875 33.4997 41.875ZM33.4997 19.5417H47.458C48.1984 19.5417 48.9085 19.8358 49.432 20.3594C49.9556 20.8829 50.2497 21.593 50.2497 22.3334C50.2497 23.0738 49.9556 23.7838 49.432 24.3074C48.9085 24.8309 48.1984 25.125 47.458 25.125H33.4997C32.7593 25.125 32.0492 24.8309 31.5257 24.3074C31.0021 23.7838 30.708 23.0738 30.708 22.3334C30.708 21.593 31.0021 20.8829 31.5257 20.3594C32.0492 19.8358 32.7593 19.5417 33.4997 19.5417ZM21.8528 34.1784L27.7768 28.2517C28.0361 27.9925 28.344 27.787 28.6828 27.6467C29.0217 27.5065 29.3848 27.4345 29.7515 27.4346C30.1181 27.4347 30.4812 27.5071 30.8199 27.6475C31.1586 27.7879 31.4664 27.9937 31.7256 28.2531C31.9848 28.5125 32.1903 28.8204 32.3305 29.1592C32.4707 29.498 32.5428 29.8611 32.5427 30.2278C32.5426 30.5945 32.4702 30.9575 32.3298 31.2963C32.1893 31.635 31.9836 31.9427 31.7242 32.2019L23.8293 40.0967C23.5701 40.3563 23.2622 40.5622 22.9233 40.7027C22.5844 40.8432 22.2211 40.9155 21.8542 40.9155C21.4874 40.9155 21.1241 40.8432 20.7852 40.7027C20.4463 40.5622 20.1384 40.3563 19.8791 40.0967L15.9317 36.1521C15.4232 35.6256 15.1418 34.9204 15.1482 34.1885C15.1545 33.4565 15.4481 32.7563 15.9657 32.2387C16.4833 31.7211 17.1835 31.4275 17.9155 31.4212C18.6474 31.4148 19.3526 31.6962 19.8791 32.2047L21.8528 34.1784Z" fill="black"/>
</svg>
