<?xml version="1.0" encoding="UTF-8" standalone="no" ?>
<!DOCTYPE svg PUBLIC "-//W3C//DTD SVG 1.1//EN" "http://www.w3.org/Graphics/SVG/1.1/DTD/svg11.dtd">
<svg xmlns="http://www.w3.org/2000/svg" xmlns:xlink="http://www.w3.org/1999/xlink" version="1.1" width="500" height="500" viewBox="0 0 500 500" xml:space="preserve">
<desc>Created with Fabric.js 4.6.0</desc>
<defs>
</defs>
<g transform="matrix(1.12 0.48 -0.48 1.13 124.9 125.25)" id="Pgf-prkWzs_lcGdteXKuv"  >
<path style="stroke: rgb(52,90,236); stroke-width: 0; stroke-dasharray: none; stroke-linecap: butt; stroke-dashoffset: 0; stroke-linejoin: miter; stroke-miterlimit: 4; fill: rgb(178,216,201); fill-rule: nonzero; opacity: 1;" vector-effect="non-scaling-stroke"  transform=" translate(0, 0)" d="M -99.02598 -57.27848 C -99.02598 -80.33499 -80.21605 -99.02598 -57.012820000000005 -99.02598 L 57.01281 -99.02598 L 57.01281 -99.02598 C 80.21604 -99.02598 99.02597 -80.33499 99.02597 -57.27848 L 99.02597 57.27848 L 99.02597 57.27848 C 99.02597 80.33499 80.21603999999999 99.02598 57.01281 99.02598 L -57.012820000000005 99.02598 L -57.012820000000005 99.02598 C -80.21605000000001 99.02598 -99.02598 80.33499 -99.02598 57.27848 z" stroke-linecap="round" />
</g>
<g transform="matrix(1.12 0.48 -0.48 1.13 371.46 380.51)" id="z-RgL3IyFEo3cOjLPnvyR"  >
<path style="stroke: rgb(52,90,236); stroke-width: 0; stroke-dasharray: none; stroke-linecap: butt; stroke-dashoffset: 0; stroke-linejoin: miter; stroke-miterlimit: 4; fill: rgb(178,216,201); fill-rule: nonzero; opacity: 1;" vector-effect="non-scaling-stroke"  transform=" translate(0, 0)" d="M -99.02598 -57.27848 C -99.02598 -80.33499 -80.21605 -99.02598 -57.012820000000005 -99.02598 L 57.01281 -99.02598 L 57.01281 -99.02598 C 80.21604 -99.02598 99.02597 -80.33499 99.02597 -57.27848 L 99.02597 57.27848 L 99.02597 57.27848 C 99.02597 80.33499 80.21603999999999 99.02598 57.01281 99.02598 L -57.012820000000005 99.02598 L -57.012820000000005 99.02598 C -80.21605000000001 99.02598 -99.02598 80.33499 -99.02598 57.27848 z" stroke-linecap="round" />
</g>
<g transform="matrix(1.12 0.48 -0.48 1.13 420.32 110.63)" id="nuci1SU1fsTNC2mGgK8xI"  >
<path style="stroke: rgb(52,90,236); stroke-width: 0; stroke-dasharray: none; stroke-linecap: butt; stroke-dashoffset: 0; stroke-linejoin: miter; stroke-miterlimit: 4; fill: rgb(178,216,201); fill-rule: nonzero; opacity: 1;" vector-effect="non-scaling-stroke"  transform=" translate(0, 0)" d="M -99.02598 -57.27848 C -99.02598 -80.33499 -80.21605 -99.02598 -57.012820000000005 -99.02598 L 57.01281 -99.02598 L 57.01281 -99.02598 C 80.21604 -99.02598 99.02597 -80.33499 99.02597 -57.27848 L 99.02597 57.27848 L 99.02597 57.27848 C 99.02597 80.33499 80.21603999999999 99.02598 57.01281 99.02598 L -57.012820000000005 99.02598 L -57.012820000000005 99.02598 C -80.21605000000001 99.02598 -99.02598 80.33499 -99.02598 57.27848 z" stroke-linecap="round" />
</g>
<g transform="matrix(1.12 0.48 -0.48 1.13 77.24 390.77)" id="FXxU82CD5TXOP3xOFGutg"  >
<path style="stroke: rgb(52,90,236); stroke-width: 0; stroke-dasharray: none; stroke-linecap: butt; stroke-dashoffset: 0; stroke-linejoin: miter; stroke-miterlimit: 4; fill: rgb(178,216,201); fill-rule: nonzero; opacity: 1;" vector-effect="non-scaling-stroke"  transform=" translate(0, 0)" d="M -99.02598 -57.27848 C -99.02598 -80.33499 -80.21605 -99.02598 -57.012820000000005 -99.02598 L 57.01281 -99.02598 L 57.01281 -99.02598 C 80.21604 -99.02598 99.02597 -80.33499 99.02597 -57.27848 L 99.02597 57.27848 L 99.02597 57.27848 C 99.02597 80.33499 80.21603999999999 99.02598 57.01281 99.02598 L -57.012820000000005 99.02598 L -57.012820000000005 99.02598 C -80.21605000000001 99.02598 -99.02598 80.33499 -99.02598 57.27848 z" stroke-linecap="round" />
</g>
</svg>