<svg width="96" height="100" viewBox="0 0 96 100" fill="none" xmlns="http://www.w3.org/2000/svg">
<path d="M87.9729 18.7376H77.0218V6.35278C77.0218 2.9329 73.7528 0.160156 69.721 0.160156H25.916C21.8841 0.160156 18.6152 2.9329 18.6152 6.35278V18.7375H7.66404C3.63197 18.7375 0.363281 21.5098 0.363281 24.9301C0.363281 28.3502 3.63197 31.1227 7.66404 31.1227H7.66427V93.0503C7.66404 96.47 10.9323 99.2422 14.9637 99.2422H80.6733C84.7047 99.2422 87.9727 96.4702 87.9727 93.0507V93.0505V31.1229C92.0047 31.1229 95.2734 28.3503 95.2734 24.9303C95.2737 21.51 92.005 18.7376 87.9729 18.7376ZM33.2169 83.7606C33.2169 85.4706 31.5827 86.8569 29.5666 86.8569C27.5504 86.8569 25.9162 85.4706 25.9162 83.7606V46.6045C25.9162 44.8943 27.5504 43.5082 29.5666 43.5082C31.5827 43.5082 33.2169 44.8943 33.2169 46.6045V83.7606ZM33.2169 12.5454H62.42V18.7375H33.2169V12.5454ZM51.4689 83.7606C51.4689 85.4706 49.8346 86.8569 47.8185 86.8569C45.8023 86.8569 44.1681 85.4706 44.1681 83.7606V46.6045C44.1681 44.8943 45.8023 43.5082 47.8185 43.5082C49.8346 43.5082 51.4689 44.8943 51.4689 46.6045V83.7606ZM69.7208 83.7606C69.7208 85.4706 68.0865 86.8569 66.0704 86.8569C64.0542 86.8569 62.42 85.4706 62.42 83.7606V46.6045C62.42 44.8943 64.0542 43.5082 66.0704 43.5082C68.0865 43.5082 69.7208 44.8943 69.7208 46.6045V83.7606Z" fill="black"/>
</svg>
