<svg width="64" height="111" viewBox="0 0 64 111" fill="none" xmlns="http://www.w3.org/2000/svg">
<path d="M43.3323 0.6875C42.6572 0.6875 41.9826 0.810204 41.3077 0.994259L7.87092 12.1603C4.55791 13.2646 2.77871 16.8844 3.88304 20.1974C4.74197 22.7742 7.19604 24.5534 9.89553 24.5534C10.5704 24.5534 11.2453 24.4307 11.9201 24.2466L45.3569 13.1419C46.9523 12.5898 48.2406 11.4854 49.0378 9.95163C49.774 8.41784 49.8969 6.69998 49.4059 5.10483C48.4247 2.40535 46.0316 0.6875 43.3323 0.6875Z" fill="black"/>
<path d="M57.3208 15.4119C56.6461 15.4119 55.971 15.5346 55.2962 15.7186L5.1717 32.4677C1.8587 33.572 0.0794923 37.1918 1.18383 40.5048C2.04275 43.0816 4.49683 44.8608 7.19631 44.8608C7.87118 44.8608 8.54605 44.7381 9.22092 44.554L59.3452 27.8663C62.6584 26.762 64.4374 23.1422 63.3333 19.8292C62.4745 17.1911 60.0816 15.4119 57.3208 15.4119Z" fill="black"/>
<path d="M63.3329 39.4619C62.4741 36.8852 60.081 35.106 57.3204 35.106C57.1979 35.106 57.0748 35.106 56.8907 35.106C56.032 35.1673 54.498 35.7195 53.5164 36.0262L53.2711 36.1489L5.17128 52.1618C1.91964 53.2661 -0.289031 55.2294 0.0790806 58.8491C0.140432 59.4626 6.64373 68.2973 9.22051 71.6717C9.22051 71.6717 9.15916 87.5618 9.15916 87.6845H9.0978C9.0978 100.445 19.4663 110.753 32.1661 110.753C44.9271 110.753 55.2344 100.384 55.2344 87.6845H55.1733C55.1733 87.5618 55.1733 79.5859 55.1733 79.5859C55.1733 75.8434 52.167 72.8372 48.4246 72.8372C48.4246 72.8372 20.7547 72.8372 20.6935 72.8372C20.6322 72.8372 18.9143 68.0519 18.5462 67.5611C17.2578 65.6592 15.724 63.88 14.3129 62.1008C29.8963 57.3767 59.1611 47.499 59.1611 47.499C62.6582 46.3333 64.4372 42.7749 63.3329 39.4619Z" fill="black"/>
</svg>
