<svg width="118" height="118" viewBox="0 0 118 118" fill="none" xmlns="http://www.w3.org/2000/svg">
<g clip-path="url(#clip0_1030_346)">
<path d="M78.2044 45.5517H100.788C104.682 45.5517 107.797 42.242 107.797 37.9589C107.797 34.2599 105.266 31.1448 101.956 30.5607C101.178 22.1892 95.7263 18.2954 90.2751 18.2954C82.6823 18.2954 78.3992 23.552 77.0363 25.6936C72.5584 26.2777 68.8594 30.5607 68.8594 35.6227C68.8594 41.0738 72.9478 45.5517 78.2044 45.5517Z" fill="black"/>
<path d="M39.6563 6.61406C43.9393 6.61406 47.4437 10.1184 47.4437 14.4015C47.4437 15.5696 48.2224 16.3483 49.3905 16.3483C50.5586 16.3483 51.3373 15.5696 51.3373 14.4015C51.3373 8.95031 55.6203 4.66704 61.0717 4.66704C62.2399 4.66704 63.0185 3.88836 63.0185 2.72024C63.0185 1.55211 62.2399 0.773438 61.0717 0.773438C56.0098 0.773438 51.5321 3.49914 49.1959 7.78219C47.0542 4.66726 43.5499 2.72024 39.6563 2.72024C38.4881 2.72024 37.7095 3.49891 37.7095 4.66704C37.7095 5.83516 38.4881 6.61406 39.6563 6.61406Z" fill="black"/>
<path d="M115.584 113.692H101.956V107.852H107.797C108.965 107.852 109.744 107.073 109.744 105.905V102.4C109.744 98.1174 106.239 94.4181 101.956 94.4181V90.5243H105.85C107.018 90.5243 107.797 89.7456 107.797 88.5775C107.797 87.4094 107.018 86.6307 105.85 86.6307H101.956V82.7369H105.85C107.018 82.7369 107.797 81.9582 107.797 80.7901C107.797 79.622 107.018 78.8433 105.85 78.8433H101.956V76.8965C101.956 75.7284 101.178 74.9497 100.009 74.9497C98.8413 74.9497 98.0626 75.7284 98.0626 76.8965V78.8433H74.7001V76.8965C74.7001 75.7284 73.9214 74.9497 72.7533 74.9497C71.5852 74.9497 70.8065 75.7284 70.8065 76.8965V78.8433H66.9127C65.7445 78.8433 64.9659 79.622 64.9659 80.7901C64.9659 81.9582 65.7445 82.7369 66.9127 82.7369H70.8063V86.6307H66.9124C65.7443 86.6307 64.9656 87.4094 64.9656 88.5775C64.9656 89.7456 65.7443 90.5243 66.9124 90.5243H70.8063V94.4181C66.5232 94.6128 63.0188 98.1171 63.0188 102.4V105.905C63.0188 107.073 63.7975 107.852 64.9656 107.852H70.8063V113.692H29.9219V94.2235H51.3376C51.9216 94.2235 52.5057 93.8341 52.8952 93.4449C53.2846 92.8608 53.2846 92.2767 53.2846 91.6927L29.9219 19.6581C29.7273 18.8795 28.9484 18.2954 27.9751 18.2954C27.0018 18.2954 26.4175 18.8795 26.0283 19.6581L2.66555 91.6927C2.66555 92.2767 2.66555 92.8608 3.055 93.4449C3.44445 93.8343 4.02851 94.2235 4.61258 94.2235H26.0283V113.692H2.66555C1.49742 113.692 0.71875 114.471 0.71875 115.639C0.71875 116.807 1.49742 117.586 2.66555 117.586H115.584C116.752 117.586 117.531 116.807 117.531 115.639C117.531 114.471 116.753 113.692 115.584 113.692ZM98.0626 113.692H74.7001V107.852H98.0626V113.692ZM98.0626 94.2235H74.7001V90.3297H98.0626V94.2235ZM98.0626 86.4361H74.7001V82.5423H98.0626V86.4361Z" fill="black"/>
</g>
<defs>
<clipPath id="clip0_1030_346">
<rect width="116.812" height="116.812" fill="white" transform="translate(0.71875 0.773438)"/>
</clipPath>
</defs>
</svg>
