<svg width="98" height="98" viewBox="0 0 98 98" fill="none" xmlns="http://www.w3.org/2000/svg">
<g clip-path="url(#clip0_1030_368)">
<path d="M94.0546 1.11961C74.5359 -1.15922 64.41 4.30997 59.139 9.99713C49.231 20.6779 50.8163 40.8703 48.5969 48.4202C44.7724 51.987 42.1369 56.5249 40.1355 61.2609C39.0258 59.1802 37.6783 57.2581 35.994 55.653C34.0917 36.5108 31.4562 32.944 28.7612 29.8329C25.0358 25.7111 17.3076 21.9065 4.38762 23.4323C2.94106 23.4323 1.71248 24.4627 1.07837 25.7111C0.464074 27.1577 0.662233 28.6043 1.4945 29.8329C3.77333 32.726 5.61621 36.0352 7.06277 39.3247C7.4789 40.1569 11.0854 50.481 16.3564 53.9884C18.6353 55.8511 21.251 57.1392 23.7874 57.7138C32.2884 59.636 34.9437 68.0379 36.1723 72.3776L33.8935 93.0258C33.6953 95.3046 35.1419 97.3655 37.4009 97.5636C39.6203 97.8014 41.3641 96.1171 41.5226 94.0562C43.4646 70.8716 48.1213 59.5765 54.5417 53.9884C57.0187 51.6105 61.5565 49.8667 64.4496 48.8165C67.957 47.3699 71.7617 45.745 75.1898 43.4464C82.7199 38.3735 87.7928 23.4125 88.4071 22.1839C90.6859 17.012 93.579 12.058 96.8685 7.52014C99.3454 3.43807 95.5804 0.941263 94.0546 1.11961ZM15.5638 38.4924C15.1477 37.6601 12.8886 32.9241 12.0564 31.2596C23.6685 31.0218 25.2736 39.721 26.1059 42.416C26.522 44.0607 26.9381 47.3699 27.3543 50.4612C26.9183 50.4612 19.3288 49.4704 15.5638 38.4924ZM79.589 22.5802C73.882 33.5781 75.1304 37.026 57.4942 42.8123C58.8417 26.3056 62.6662 18.0226 65.3413 14.9313C68.0165 12.058 75.1898 7.75793 86.6038 8.55057C84.7609 11.8598 80.2033 21.3516 79.589 22.5802Z" fill="black"/>
</g>
<defs>
<clipPath id="clip0_1030_368">
<rect width="96.9961" height="96.9961" fill="white" transform="translate(0.707031 0.589844)"/>
</clipPath>
</defs>
</svg>
