<svg width="317" height="152" viewBox="0 0 317 152" fill="none" xmlns="http://www.w3.org/2000/svg">
<path d="M305.917 7.94463C305.917 7.94463 317.943 3.31306 316.941 14.5612C316.607 19.1928 313.6 35.4033 311.262 52.9372L303.245 104.877C303.245 104.877 302.577 112.486 296.563 113.809C290.55 115.133 281.531 109.178 279.861 107.854C278.524 106.862 254.807 91.9748 246.455 84.6966C244.117 82.7116 241.444 78.7416 246.789 74.1101L281.865 41.0275C285.874 37.0575 289.882 27.7944 273.18 39.0425L226.412 70.4711C226.412 70.4711 221.067 73.7793 211.046 70.8019L189.332 64.1853C189.332 64.1853 181.315 59.223 195.011 54.2603C228.416 38.7114 269.505 22.8317 305.917 7.94463Z" fill="#00040D"/>
<path d="M166.849 1.3419C166.849 1.3419 183.723 -5.23753 182.317 10.7411C181.848 17.3206 177.63 40.3486 174.349 65.2566L163.1 139.04C163.1 139.04 162.163 149.849 153.726 151.729C145.289 153.609 132.634 145.15 130.29 143.27C128.416 141.86 95.138 120.712 83.4202 110.373C80.1391 107.553 76.3895 101.913 83.8887 95.3339L133.103 48.3381C138.727 42.6985 144.352 29.5397 120.916 45.5183L55.298 90.1646C55.298 90.1646 47.7988 94.864 33.7379 90.6345L3.272 81.2353C3.272 81.2353 -7.97691 74.1859 11.24 67.1362C58.1104 45.048 115.761 22.4899 166.849 1.3419Z" fill="black"/>
</svg>
