<svg width="34" height="20" viewBox="0 0 34 20" fill="none" xmlns="http://www.w3.org/2000/svg">
<path d="M17.0437 6.02201C20.7294 6.01645 23.7218 8.99356 23.7274 12.6716C23.7329 16.3496 20.7495 19.3357 17.0637 19.3412C13.378 19.3468 10.3856 16.3697 10.38 12.6917C10.3745 9.01369 13.3579 6.02757 17.0437 6.02201ZM17.0474 8.51937C14.7438 8.52284 12.8792 10.3892 12.8827 12.6879C12.8861 14.9867 14.7564 16.8474 17.06 16.8439C19.3636 16.8404 21.2282 14.9741 21.2248 12.6753C21.2213 10.3766 19.351 8.51589 17.0474 8.51937ZM17.0349 0.187142C24.7322 0.175535 31.3847 5.40998 33.2394 12.7567C33.4082 13.4255 33.0018 14.1041 32.3317 14.2726C31.6616 14.4411 30.9814 14.0356 30.8126 13.3668C29.2367 7.12466 23.5811 2.67463 17.0386 2.6845C10.4933 2.69437 4.84936 7.16528 3.29507 13.4158C3.12863 14.0852 2.44996 14.4931 1.77922 14.327C1.10848 14.161 0.699657 13.4837 0.866096 12.8144C2.69543 5.45775 9.33424 0.198754 17.0349 0.187142Z" fill="#212121"/>
</svg>
