<svg width="34" height="34" viewBox="0 0 34 34" fill="none" xmlns="http://www.w3.org/2000/svg">
<path d="M7.82287 13.9999C9.17161 9.94828 13.0123 7.0384 17.5616 7.0384C20.007 7.0384 22.2158 7.89866 23.9513 9.30635L29 4.30122C25.9235 1.64225 21.9792 -6.10352e-05 17.5616 -6.10352e-05C10.7209 -6.10352e-05 4.83139 3.86865 2 9.53448L7.82287 13.9999Z" fill="#EA4335"/>
<path d="M23.4924 25.3868C21.9101 26.3992 19.8995 26.938 17.6258 26.938C13.0763 26.938 9.23271 24.0408 7.86485 19.9999L2 24.4121C4.83888 30.1067 10.7512 33.9999 17.6258 33.9999C21.8839 33.9999 25.9528 32.5001 29 29.6837L23.4924 25.3868Z" fill="#34A853"/>
<path d="M28.6269 29.9999C31.8846 27.0701 34 22.7079 34 17.122C34 16.1073 33.8381 15.0146 33.5952 13.9999H17V20.6343H26.5524C26.081 22.8653 24.8159 24.5933 22.997 25.7257L28.6269 29.9999Z" fill="#4A90E2"/>
<path d="M8 20.4072C7.63819 19.3416 7.44227 18.1998 7.44227 17.0112C7.44227 15.8406 7.6323 14.7153 7.98365 13.6637L1.87985 8.99994C0.661874 11.4114 0 14.1292 0 17.0112C0 19.8856 0.674296 22.5968 1.87602 24.9999L8 20.4072Z" fill="#FBBC05"/>
</svg>
