<svg width="56" height="66" viewBox="0 0 56 66" fill="none" xmlns="http://www.w3.org/2000/svg">
<path d="M33.4079 20.9998C21.2402 20.9998 11.3411 30.8989 11.3411 43.0665C11.3411 55.2342 21.2402 65.1334 33.4079 65.1334C45.5756 65.1334 55.4748 55.2342 55.4748 43.0665C55.4748 30.8988 45.5756 20.9998 33.4079 20.9998Z" fill="#41484E"/>
<path d="M30.0331 11.5237C28.3669 6.06219 24.3573 1.6846 19.5688 0.0995862C18.778 -0.162064 17.9085 0.103268 17.3985 0.761647C14.3103 4.74963 13.4268 10.6198 15.093 16.0815C16.7592 21.5431 20.7689 25.9206 25.5574 27.5056C25.7604 27.5728 25.9685 27.6053 26.1743 27.6053C26.7707 27.6053 27.3485 27.3331 27.7275 26.8435C30.8159 22.8557 31.6993 16.9855 30.0331 11.5237Z" fill="#A2CE86"/>
<path d="M27.7278 26.8436C30.8161 22.8556 31.6996 16.9854 30.0333 11.5235C28.367 6.062 24.3575 1.6844 19.5689 0.0993949C19.1651 -0.0341598 18.7409 -0.0295895 18.3545 0.093809C19.5259 3.87511 23.4897 16.6814 26.7998 27.5015C27.1591 27.3809 27.4845 27.1577 27.7278 26.8436Z" fill="#489B6D"/>
<path d="M15.933 16.7984C10.4147 15.3306 4.58034 16.4254 0.706363 19.6558C0.0666464 20.1892 -0.166948 21.0677 0.12314 21.8485C1.88004 26.5766 6.39958 30.4256 11.9177 31.8934C17.436 33.3612 23.2705 32.2665 27.1444 29.0361C27.3085 28.8991 27.4459 28.7395 27.5545 28.5647C27.8694 28.0582 27.9431 27.4237 27.7276 26.8433C25.9709 22.1154 21.4514 18.2663 15.933 16.7984Z" fill="#A2CE86"/>
<path d="M27.7278 26.8436C25.9709 22.1155 21.4514 18.2665 15.9332 16.7987C10.4151 15.3308 4.58058 16.4257 0.706602 19.656C0.380078 19.9283 0.160068 20.291 0.060791 20.6845C3.89059 21.6855 16.8599 25.0789 27.7969 27.9791C27.8838 27.6101 27.8661 27.2159 27.7278 26.8436Z" fill="#489B6D"/>
<path d="M33.0669 21C20.8992 21 11 30.8992 11 43.0667C11 55.2344 20.8992 65.1336 33.0669 65.1336V21Z" fill="#42A380"/>
<path d="M33.6153 28.575C25.6984 28.575 19.2573 35.0158 19.2573 42.933C19.2573 50.8501 25.6983 57.291 33.6153 57.291C41.5324 57.291 47.9732 50.8499 47.9732 42.9328C47.9732 35.0158 41.5323 28.575 33.6153 28.575Z" fill="#E0EFED"/>
<path d="M33.6153 28.575C25.6984 28.575 19.2573 35.0158 19.2573 42.933C19.2573 50.8501 25.6983 57.291 33.6153 57.291V28.575Z" fill="#F4FCFD"/>
<path d="M32.4028 46.5648C31.3181 46.5648 30.4387 45.6854 30.4387 44.6007V37.4751C30.4387 36.3904 31.3181 35.511 32.4028 35.511C33.4875 35.511 34.3669 36.3904 34.3669 37.4751V44.6006C34.3669 45.6854 33.4875 46.5648 32.4028 46.5648Z" fill="#F2BA57"/>
<path d="M37.4493 46.5647H32.4026C31.3179 46.5647 30.4385 45.6853 30.4385 44.6006C30.4385 43.5159 31.3179 42.6365 32.4026 42.6365H37.4493C38.534 42.6365 39.4134 43.5159 39.4134 44.6006C39.4136 45.6853 38.5343 46.5647 37.4493 46.5647Z" fill="#F2BA57"/>
</svg>
